<?xml version="1.0" encoding="UTF-8"?>
<svg version="1.1" xmlns="http://www.w3.org/2000/svg" width="1024" height="1024" viewBox="0 0 1024 1024">
<path d="M0 0 C337.92 0 675.84 0 1024 0 C1024 337.92 1024 675.84 1024 1024 C686.08 1024 348.16 1024 0 1024 C0 686.08 0 348.16 0 0 Z " fill="#0A080E" transform="translate(0,0)"/>
<path d="M0 0 C2.82284635 2.53023423 4.56223987 5.38171504 6.5 8.625 C10.17542611 14.71081372 14.00003498 20.68910696 17.87890625 26.64697266 C20.40166696 30.5240279 22.90165195 34.41397997 25.37890625 38.3203125 C28.37442901 43.03600818 31.4234936 47.71401644 34.49145508 52.3828125 C39.77677159 60.4282768 44.98354367 68.48881706 49.86328125 76.78686523 C52.39329432 81.06280133 55.09085188 85.19816579 57.875 89.3125 C62.02091928 95.44257798 65.91815174 101.69615685 69.75341797 108.02441406 C77.1607271 120.23597374 84.85537929 132.26393746 92.64453125 144.23461914 C96.67017898 150.44392344 100.58805777 156.71861138 104.5 163 C111.09209049 173.58088769 117.81608053 184.06536616 124.63427734 194.50146484 C125.78922225 196.26975921 126.94351093 198.03848234 128.09716797 199.80761719 C129.1998703 201.49823909 130.30422615 203.18778427 131.41064453 204.87597656 C134.57089554 209.71963251 137.593072 214.62645044 140.55102539 219.59594727 C142.72373146 223.20077231 145.01085765 226.72661279 147.3125 230.25 C148.27230766 231.72645054 149.23194048 233.20301476 150.19140625 234.6796875 C150.66336426 235.40510742 151.13532227 236.13052734 151.62158203 236.87792969 C155.10310587 242.23772516 158.55085577 247.61933501 162 253 C162.60457031 253.94230469 163.20914063 254.88460937 163.83203125 255.85546875 C166.8288961 260.54356659 169.78002863 265.25591605 172.6875 270 C177.112523 277.21659024 181.63930834 284.36766708 186.16796875 291.51953125 C188.79496057 295.66954748 191.40206134 299.83174541 194 304 C190.63672687 302.71195377 187.48831094 301.26357311 184.33203125 299.53125 C183.44773437 299.04744873 182.5634375 298.56364746 181.65234375 298.06518555 C180.71519531 297.54867432 179.77804687 297.03216309 178.8125 296.5 C177.83796875 295.96608643 176.8634375 295.43217285 175.859375 294.88208008 C170.47171246 291.92615343 165.10038172 288.94216658 159.73828125 285.94018555 C153.98650399 282.72112259 148.23980213 279.57679423 142.3125 276.6875 C134.87567985 273.03826965 127.71597304 268.92976961 120.52075195 264.82885742 C114.64525867 261.48344408 108.74305095 258.22852312 102.75732422 255.0847168 C96.18136317 251.60767962 89.73880933 247.89700461 83.27514648 244.21679688 C74.51991783 239.25184994 65.66957059 234.47681442 56.7800293 229.75732422 C51.77271303 227.08733024 46.88766904 224.34817747 42.1081543 221.29150391 C37.48645472 218.46014424 32.65711017 215.98448576 27.875 213.4375 C25.55183572 212.19317052 23.22892321 210.94837088 20.90625 209.703125 C19.74738281 209.08244141 18.58851563 208.46175781 17.39453125 207.82226562 C5.81360866 201.60534919 -5.7250632 195.30794641 -17.1875 188.875 C-17.84121582 188.50850342 -18.49493164 188.14200684 -19.16845703 187.7644043 C-21.84626835 186.25376081 -24.44012816 184.70658123 -27 183 C-33.94808675 183.92641157 -40.05302638 186.52666534 -46.47265625 189.26953125 C-50.38604478 190.84627797 -54.39147786 192.08732007 -58.421875 193.32421875 C-66.36066578 195.76163611 -74.19515062 198.4479697 -82.01928711 201.22949219 C-84.1958415 202.00296428 -86.37415074 202.77132699 -88.55273438 203.5390625 C-94.9447264 205.79867718 -101.30999919 208.09770559 -107.625 210.56640625 C-113.97579129 213.03459835 -120.41169775 215.19237352 -126.8873291 217.3079834 C-139.89642268 221.55704648 -139.89642268 221.55704648 -152.75 226.25 C-161.75280674 229.7156388 -170.9097561 232.70382688 -180.08520508 235.67529297 C-186.72951123 237.85056167 -193.26550721 240.29982133 -199.8125 242.75 C-209.0165071 246.18043064 -218.24315632 249.51970568 -227.52734375 252.72631836 C-232.35830863 254.40188229 -237.12807467 256.16499904 -241.83203125 258.17578125 C-244 259 -244 259 -247.20849609 259.90209961 C-250.80729359 260.94419828 -254.30664342 262.12432688 -257.83203125 263.390625 C-258.7852552 263.73126984 -258.7852552 263.73126984 -259.75773621 264.07879639 C-261.77674872 264.80043505 -263.7947363 265.52487755 -265.8125 266.25 C-274.12700725 269.23691484 -282.45099229 272.17292043 -290.83984375 274.9453125 C-297.03738565 276.99375062 -303.20782058 279.10632635 -309.359375 281.2890625 C-310.13335129 281.5634314 -310.90732758 281.83780029 -311.70475769 282.1204834 C-314.84572813 283.23526447 -317.98599825 284.35195146 -321.12451172 285.47363281 C-330.05930681 288.66344848 -338.95478241 291.68870314 -348.12133789 294.15380859 C-351.52387906 295.15399583 -354.6344985 296.50413202 -357.8359375 298.01171875 C-362.11148827 299.96427172 -366.56851472 301.44355068 -371 303 C-371.65242676 303.23025879 -372.30485352 303.46051758 -372.97705078 303.69775391 C-381.40005629 306.66979238 -389.83572065 309.60393092 -398.28515625 312.5 C-399.56331978 312.93862191 -400.8414773 313.37726131 -402.11962891 313.81591797 C-404.5988467 314.66667549 -407.07910636 315.51415251 -409.56005859 316.35986328 C-415.23948913 318.30747821 -420.8745127 320.31659327 -426.46484375 322.5078125 C-433.42752427 325.21719535 -440.50220531 327.50189158 -447.625 329.75 C-450.09635494 330.5364559 -452.56770915 331.32291412 -455.0390625 332.109375 C-456.11365723 332.44936523 -457.18825195 332.78935547 -458.29541016 333.13964844 C-460.2013885 333.74595532 -462.10254768 334.36751589 -464 335 C-460.62115593 326.84045102 -450.58912879 321.9390249 -443.60546875 316.99804688 C-434.61801796 310.62951992 -425.73178965 304.07930879 -417.1875 297.125 C-406.36790665 288.37145965 -394.92140248 280.37117786 -383.625 272.25 C-377.31958465 267.71589872 -371.11940013 263.07401204 -364.984375 258.3125 C-356.19893533 251.50493418 -347.22377937 244.9487945 -338.27099609 238.36425781 C-332.50785153 234.12180089 -326.77466862 229.8415565 -321.05737305 225.53759766 C-315.91944782 221.67538758 -310.74443884 217.86537447 -305.5625 214.0625 C-298.78706237 209.08729942 -292.08409532 204.02846552 -285.4230957 198.90136719 C-279.28893789 194.19191238 -273.06510854 189.61006673 -266.82885742 185.03710938 C-261.14366944 180.8614348 -255.52697052 176.60919187 -249.95703125 172.28125 C-246.33158199 169.48433802 -242.66733152 166.74161864 -239 164 C-237.76024278 163.0705444 -236.52065562 162.14086191 -235.28125 161.2109375 C-233.33483523 159.75106261 -231.38834514 158.29128865 -229.44165039 156.83178711 C-225.84336645 154.13379753 -222.24648797 151.43397124 -218.65234375 148.73046875 C-217.9459375 148.19953613 -217.23953125 147.66860352 -216.51171875 147.12158203 C-215.17137179 146.11411314 -213.83149474 145.10601863 -212.4921875 144.09716797 C-211.26008183 143.17148106 -210.02302802 142.2523381 -208.78076172 141.34033203 C-207.60401536 140.45462631 -206.45305967 139.5334591 -205.33251953 138.57763672 C-200.43411186 134.58597079 -196.1903794 134.23476931 -190 134 C-178.90476146 133.29972366 -168.42463382 131.15741801 -157.62695312 128.6015625 C-153.43643316 127.64194901 -149.22060983 126.81542273 -145 126 C-145 125.34 -145 124.68 -145 124 C-143.35 123.67 -141.7 123.34 -140 123 C-140 122.34 -140 121.68 -140 121 C-140.99 121 -141.98 121 -143 121 C-143.33 120.34 -143.66 119.68 -144 119 C-144.99 118.67 -145.98 118.34 -147 118 C-147 117.01 -147 116.02 -147 115 C-147.84820312 115.24878906 -148.69640625 115.49757813 -149.5703125 115.75390625 C-154.03273398 116.07410278 -156.3964725 114.44408599 -159.875 111.9375 C-160.46796875 111.55400391 -161.0609375 111.17050781 -161.671875 110.77539062 C-163.3671875 109.58984375 -163.3671875 109.58984375 -166 107 C-166.3828125 103.69140625 -166.3828125 103.69140625 -166 101 C-167.32 100.67 -168.64 100.34 -170 100 C-170 99.34 -170 98.68 -170 98 C-171.32 97.67 -172.64 97.34 -174 97 C-172.68 96.67 -171.36 96.34 -170 96 C-170.83144531 95.80664062 -171.66289062 95.61328125 -172.51953125 95.4140625 C-173.60621094 95.15367187 -174.69289063 94.89328125 -175.8125 94.625 C-176.89144531 94.36976563 -177.97039062 94.11453125 -179.08203125 93.8515625 C-182 93 -182 93 -185 91 C-185.33 92.98 -185.66 94.96 -186 97 C-186.66 96.67 -187.32 96.34 -188 96 C-189.08179761 92.223914 -189.10543987 88.59502858 -189.0625 84.6875 C-189.05347656 83.61886719 -189.04445313 82.55023438 -189.03515625 81.44921875 C-189.01775391 80.23685547 -189.01775391 80.23685547 -189 79 C-189.66 79 -190.32 79 -191 79 C-191.4375 75.9375 -191.4375 75.9375 -191 72 C-189.55515159 70.0962532 -187.92801901 68.62951601 -186.1484375 67.03515625 C-182.71035535 63.77835479 -179.87489144 60.04526041 -176.91796875 56.35546875 C-173.41659022 52.0554051 -173.41659022 52.0554051 -170.6796875 51.69140625 C-169.75414062 51.64886719 -168.82859375 51.60632813 -167.875 51.5625 C-164.30531673 51.30288667 -161.30846229 50.93530593 -158 49.5625 C-149.56894981 46.0666987 -140.04916356 45.09641245 -131 46 C-127.625 47.4375 -127.625 47.4375 -125 49 C-123.00511766 49.36270588 -121.00401011 49.69169075 -119 50 C-115.64521794 50.9318839 -112.32151587 51.95628256 -109 53 C-108.67 52.01 -108.34 51.02 -108 50 C-105.02277453 50.70333538 -102.14743457 51.58248537 -99.25 52.5625 C-98.45078125 52.83191406 -97.6515625 53.10132813 -96.828125 53.37890625 C-96.22484375 53.58386719 -95.6215625 53.78882813 -95 54 C-95 54.66 -95 55.32 -95 56 C-94.34 56 -93.68 56 -93 56 C-90.08414089 60.98159036 -89.39272129 65.19171506 -88.9375 70.8125 C-88.70592833 73.57072491 -88.40120734 76.25693054 -88 79 C-85.88214887 80.11785113 -85.88214887 80.11785113 -83 81 C-86.07562421 87.3878349 -89.71479064 92.00320729 -94.75 96.9375 C-95.34554688 97.53240234 -95.94109375 98.12730469 -96.5546875 98.74023438 C-100.54787294 102.69452515 -104.69656132 106.38621496 -109 110 C-105.78184185 110.99522557 -105.78184185 110.99522557 -102.5625 110 C-100 109 -100 109 -97.8125 109.6015625 C-93.91080378 110.1543028 -90.98666622 108.82331067 -87.4375 107.375 C-86.72787109 107.09575684 -86.01824219 106.81651367 -85.28710938 106.52880859 C-83.18643681 105.69772646 -81.09329474 104.84945294 -79 104 C-77.95972656 103.59265625 -76.91945313 103.1853125 -75.84765625 102.765625 C-63.20601976 97.70203398 -51.2911041 91.36563694 -39.703125 84.24609375 C-34.76660621 81.2206979 -29.69725141 78.43304189 -24.6328125 75.62890625 C-21.91383486 74.26544029 -21.91383486 74.26544029 -21 72 C-21.94746094 71.48953125 -21.94746094 71.48953125 -22.9140625 70.96875 C-29.93675994 67.16394563 -36.88262451 63.23402131 -43.80859375 59.25683594 C-48.32729666 56.66522691 -52.85178221 54.08371798 -57.375 51.5 C-59.21616512 50.44795042 -61.05731251 49.3958698 -62.8984375 48.34375 C-63.68911621 47.89193359 -64.47979492 47.44011719 -65.29443359 46.97460938 C-65.85727051 46.65298828 -66.42010742 46.33136719 -67 46 C-67 45.34 -67 44.68 -67 44 C-65.47802734 42.81420898 -65.47802734 42.81420898 -63.3359375 41.49609375 C-62.55057617 41.00737793 -61.76521484 40.51866211 -60.95605469 40.01513672 C-60.10430664 39.4945166 -59.25255859 38.97389648 -58.375 38.4375 C-56.61692199 37.34547942 -54.85911123 36.25302847 -53.1015625 35.16015625 C-52.23047852 34.62148926 -51.35939453 34.08282227 -50.46191406 33.52783203 C-36.57226469 24.90809524 -22.87478802 15.92791049 -9.65429688 6.31079102 C-6.52044436 4.03968622 -3.35099794 1.93710104 0 0 Z " fill="#DEDCE4" transform="translate(655,424)"/>
<path d="M0 0 C0.66 0 1.32 0 2 0 C3.06010889 1.62909389 4.04710343 3.30596166 5 5 C6.28576935 7.00379639 7.57815764 9.00335214 8.875 11 C12.80404288 17.07914609 16.63379514 23.21677959 20.4375 29.375 C20.99759766 30.28137207 21.55769531 31.18774414 22.13476562 32.12158203 C24.19596159 35.45815796 26.25658409 38.79508694 28.31591797 42.1328125 C34.19203045 51.64448832 40.26678146 61.01449837 46.39746094 70.36401367 C50.70520281 76.95555459 54.86693035 83.61710207 58.93505859 90.35839844 C62.89121553 96.88803472 67.04599743 103.27933794 71.22607422 109.66723633 C75.0496929 115.5167001 78.78963859 121.41135679 82.47509766 127.34863281 C85.08685089 131.55250403 87.74543962 135.72218248 90.4375 139.875 C94.3428065 145.91008 98.09869021 152.03065548 101.8347168 158.17163086 C104.94338176 163.27915054 108.07972812 168.36798411 111.25 173.4375 C111.65903564 174.09234375 112.06807129 174.7471875 112.48950195 175.421875 C114.36582352 178.41851896 116.25519674 181.40512423 118.1796875 184.37109375 C119.14261719 185.85802734 119.14261719 185.85802734 120.125 187.375 C120.68445313 188.22835937 121.24390625 189.08171875 121.8203125 189.9609375 C123 192 123 192 123 194 C121.2163382 195.31990973 119.37010988 196.55572191 117.5 197.75 C113.23584496 200.48508934 109.16214966 203.34709504 105.125 206.40673828 C93.89784103 214.82452774 82.20049506 222.63181272 70.3996582 230.21582031 C66.18344238 232.92561866 61.99400085 235.66460302 57.84765625 238.48046875 C57.02217285 239.03976074 56.19668945 239.59905273 55.34619141 240.17529297 C53.77558033 241.24285002 52.20864881 242.31584683 50.64599609 243.39501953 C49.94684082 243.8692334 49.24768555 244.34344727 48.52734375 244.83203125 C47.91624756 245.25202393 47.30515137 245.6720166 46.67553711 246.10473633 C45 247 45 247 42 247 C40.16015625 245.0859375 40.16015625 245.0859375 38.0625 242.375 C37.26457031 241.364375 36.46664063 240.35375 35.64453125 239.3125 C35.00185303 238.49845703 35.00185303 238.49845703 34.34619141 237.66796875 C32.53378762 235.42234984 30.63991191 233.25406032 28.74072266 231.08178711 C19.08578804 220.02747202 9.78548742 208.54066746 2.26953125 195.90625 C1.13484071 193.86052469 1.13484071 193.86052469 -1 193 C-1.38865234 193.85464844 -1.38865234 193.85464844 -1.78515625 194.7265625 C-3.1129952 197.21145726 -4.64989692 199.19717171 -6.4375 201.375 C-8.83526731 204.3214456 -11.22265994 207.271733 -13.55078125 210.2734375 C-19.7181519 218.22404899 -26.10900054 225.93661966 -32.71630859 233.52539062 C-33.78979904 234.75853674 -34.85839218 235.99594387 -35.92578125 237.234375 C-38.87088152 240.6363524 -41.88559028 243.96367457 -44.94311523 247.26513672 C-48.93420646 251.57810112 -52.81215619 255.91993591 -56.5 260.5 C-60.6160251 265.61183762 -64.99009425 270.42496333 -69.44921875 275.234375 C-71.48401883 277.44055947 -73.47646238 279.66632261 -75.4375 281.9375 C-77.99693137 284.8958835 -80.63515843 287.76833922 -83.30371094 290.62768555 C-89.13971133 296.88533606 -94.64570071 303.32162308 -100 310 C-101.60342172 311.93811654 -103.20758307 313.87562143 -104.8125 315.8125 C-107.10363459 318.59826641 -109.1750079 321.27280643 -111.125 324.3125 C-112.77082448 326.67151509 -114.00193047 327.92510453 -116.1875 329.6875 C-119.33923426 332.25582813 -121.78083753 335.06976676 -124.3125 338.25 C-128.15916239 343.08130294 -132.29678399 347.40318607 -136.7109375 351.71484375 C-139.20054655 354.20020432 -141.4687 356.79994 -143.71875 359.5 C-145.67967152 361.795713 -147.86557868 363.86557868 -150 366 C-154.72997751 371.08171752 -159.26814222 376.28231979 -163.625 381.6875 C-166.65378633 385.43141643 -169.7660929 388.90204745 -173.23680115 392.23561096 C-174.91085299 393.91079281 -176.43354254 395.64049777 -177.96118164 397.44897461 C-183.02940494 403.27662006 -188.53252659 408.67663122 -193.99609375 414.12890625 C-195.15534273 415.28883055 -196.31444337 416.44890312 -197.47340393 417.6091156 C-199.89153822 420.0287161 -202.3114508 422.44651971 -204.73266602 424.86303711 C-207.81676472 427.94143922 -210.89635094 431.02431023 -213.97460842 434.10855198 C-216.36387033 436.50144869 -218.75553514 438.89193238 -221.14790535 441.28172112 C-222.28359161 442.41674617 -223.41855186 443.55249819 -224.55273247 444.68902779 C-230.02565465 450.17079878 -235.49481202 455.60852579 -241.40365601 460.62727356 C-243.78530839 462.67530156 -245.98362893 464.88877193 -248.1875 467.125 C-248.98542969 467.93195313 -249.78335938 468.73890625 -250.60546875 469.5703125 C-251.39566406 470.37210938 -252.18585938 471.17390625 -253 472 C-256.04561828 475.08327662 -259.1313887 478.0637742 -262.375 480.9375 C-266.69493699 484.80304362 -270.95326349 488.72832755 -275.1875 492.6875 C-275.81970459 493.27853516 -276.45190918 493.86957031 -277.10327148 494.47851562 C-279.74030931 496.945625 -282.37567708 499.41450766 -285.00976562 501.88476562 C-298.55569979 514.58655199 -298.55569979 514.58655199 -304.109375 519.35546875 C-306.46507347 521.40453705 -308.75871299 523.51779362 -311.0625 525.625 C-314.87448753 529.07169661 -318.74063077 532.12955552 -323 535 C-320.9435176 530.87040906 -318.82515849 526.77555103 -316.6875 522.6875 C-316.11999023 521.58631836 -316.11999023 521.58631836 -315.54101562 520.46289062 C-313.33158704 516.24964863 -310.93855806 512.38376939 -308.11401367 508.55737305 C-306.63584841 506.49092198 -305.47263719 504.32055882 -304.3125 502.0625 C-301.62464942 497.03769316 -298.7389162 492.1620447 -295.75 487.3125 C-295.09511597 486.23270874 -295.09511597 486.23270874 -294.42700195 485.13110352 C-293.34066266 483.38463507 -292.17677726 481.68685517 -291 480 C-290.34 480 -289.68 480 -289 480 C-288.90589844 479.30519531 -288.81179688 478.61039063 -288.71484375 477.89453125 C-287.85029126 474.39380231 -286.38167309 471.80242213 -284.5625 468.6875 C-284.20905518 468.08067383 -283.85561035 467.47384766 -283.49145508 466.84863281 C-279.99527166 460.89335318 -276.322136 455.04879083 -272.640625 449.20703125 C-269.87008343 444.80584582 -267.14808854 440.37580481 -264.4375 435.9375 C-263.97859375 435.18637939 -263.5196875 434.43525879 -263.046875 433.66137695 C-259.68404787 428.14602997 -256.3709749 422.60194048 -253.06445312 417.05273438 C-251.10633664 413.7844857 -249.08792623 410.58220932 -246.9375 407.4375 C-244.12608787 403.30896054 -241.69133798 399.00077267 -239.24414062 394.64868164 C-236.20045904 389.27136754 -232.93928369 384.04625076 -229.64160156 378.82202148 C-227.18523039 374.92175342 -224.80072661 370.99514409 -222.5 367 C-219.77132897 362.26343897 -216.91214298 357.62475264 -214 353 C-210.45573659 347.37044645 -207.0336681 341.68986086 -203.7109375 335.92578125 C-201.85532146 332.75259309 -199.93520447 329.625244 -198 326.5 C-194.83652334 321.38976847 -191.78765484 316.22492742 -188.77734375 311.0234375 C-186.91807313 307.86063429 -184.99811685 304.74160724 -183.0625 301.625 C-180.30581937 297.18044774 -177.67923017 292.68869496 -175.125 288.125 C-171.87353404 282.33507333 -168.29173394 276.82366657 -164.57299805 271.32470703 C-161.19190154 266.31997913 -158.05762185 261.2087126 -155 256 C-153.52515099 253.53906837 -152.04304528 251.08250793 -150.5625 248.625 C-147.16822385 242.98731501 -143.85241951 237.31019142 -140.60546875 231.5859375 C-139 229 -139 229 -136.9765625 226.484375 C-135.02618991 224.03291855 -133.62553194 221.65160345 -132.1875 218.875 C-129.6639926 214.14263699 -126.90328598 209.65479388 -123.98828125 205.15625 C-121.54675203 201.28050224 -119.24203089 197.33322929 -116.9375 193.375 C-113.90131681 188.16265861 -110.77904918 183.07998149 -107.36328125 178.10546875 C-105.17267269 174.72226527 -103.32463373 171.15988355 -101.421875 167.609375 C-99.13445188 163.41157653 -96.5653421 159.42078522 -93.97070312 155.40820312 C-93.19262048 154.20450262 -92.41505284 153.00046907 -91.63793945 151.79614258 C-90.8599054 150.59151105 -90.07991451 149.38814024 -89.29760742 148.1862793 C-87.15019179 144.86797387 -85.12475774 141.50881978 -83.18139648 138.06518555 C-80.46353817 133.31412883 -77.62637065 128.6320717 -74.8125 123.9375 C-74.13759521 122.81134277 -73.46269043 121.68518555 -72.76733398 120.52490234 C-69.44569705 115.00173854 -66.09630437 109.51473651 -62.5625 104.125 C-56.36912772 94.63628624 -50.73028831 84.80171429 -44.97749329 75.0423584 C-38.09639694 63.37413914 -31.1134953 51.76969963 -23.98046875 40.25390625 C-21.66435859 36.44854182 -19.42730936 32.60055662 -17.1875 28.75 C-13.16595318 21.8389265 -8.91089863 15.1074298 -4.4909668 8.44433594 C-4.04922119 7.7743457 -3.60747559 7.10435547 -3.15234375 6.4140625 C-2.76038818 5.8257666 -2.36843262 5.2374707 -1.96459961 4.63134766 C-0.83163334 2.84598354 -0.83163334 2.84598354 0 0 Z " fill="#ECEAEF" transform="translate(514,203)"/>
<path d="M0 0 C1.99488234 0.36270588 3.99598989 0.69169075 6 1 C9.35478206 1.9318839 12.67848413 2.95628256 16 4 C16.33 3.01 16.66 2.02 17 1 C19.97722547 1.70333538 22.85256543 2.58248537 25.75 3.5625 C26.54921875 3.83191406 27.3484375 4.10132813 28.171875 4.37890625 C28.77515625 4.58386719 29.3784375 4.78882813 30 5 C30 5.66 30 6.32 30 7 C30.66 7 31.32 7 32 7 C34.91585911 11.98159036 35.60727871 16.19171506 36.0625 21.8125 C36.29407167 24.57072491 36.59879266 27.25693054 37 30 C39.11785113 31.11785113 39.11785113 31.11785113 42 32 C38.92437579 38.3878349 35.28520936 43.00320729 30.25 47.9375 C29.65445313 48.53240234 29.05890625 49.12730469 28.4453125 49.74023438 C24.45212706 53.69452515 20.30343868 57.38621496 16 61 C19.78322659 62.15665526 21.36552001 61.49106871 25 60 C26.485 60.495 26.485 60.495 28 61 C28 61.66 28 62.32 28 63 C19.70915552 66.11705093 11.48717489 68.75642487 2.8984375 70.953125 C-2.06410502 72.24902704 -6.93779466 73.82748467 -11.81005859 75.42578125 C-14.66999004 76.34885478 -16.97216463 77 -20 77 C-20 76.34 -20 75.68 -20 75 C-17.525 74.505 -17.525 74.505 -15 74 C-15 73.34 -15 72.68 -15 72 C-15.99 72 -16.98 72 -18 72 C-18.33 71.34 -18.66 70.68 -19 70 C-19.99 69.67 -20.98 69.34 -22 69 C-22 68.01 -22 67.02 -22 66 C-22.84820312 66.24878906 -23.69640625 66.49757813 -24.5703125 66.75390625 C-29.03273398 67.07410278 -31.3964725 65.44408599 -34.875 62.9375 C-35.46796875 62.55400391 -36.0609375 62.17050781 -36.671875 61.77539062 C-38.3671875 60.58984375 -38.3671875 60.58984375 -41 58 C-41.3828125 54.69140625 -41.3828125 54.69140625 -41 52 C-42.32 51.67 -43.64 51.34 -45 51 C-45 50.34 -45 49.68 -45 49 C-46.32 48.67 -47.64 48.34 -49 48 C-47.02 47.505 -47.02 47.505 -45 47 C-45.83144531 46.80664062 -46.66289062 46.61328125 -47.51953125 46.4140625 C-49.14955078 46.02347656 -49.14955078 46.02347656 -50.8125 45.625 C-52.43091797 45.24214844 -52.43091797 45.24214844 -54.08203125 44.8515625 C-57 44 -57 44 -60 42 C-60.33 43.98 -60.66 45.96 -61 48 C-61.66 47.67 -62.32 47.34 -63 47 C-64.08179761 43.223914 -64.10543987 39.59502858 -64.0625 35.6875 C-64.05347656 34.61886719 -64.04445313 33.55023438 -64.03515625 32.44921875 C-64.01775391 31.23685547 -64.01775391 31.23685547 -64 30 C-64.66 30 -65.32 30 -66 30 C-66.4375 26.9375 -66.4375 26.9375 -66 23 C-64.55515159 21.0962532 -62.92801901 19.62951601 -61.1484375 18.03515625 C-57.71035535 14.77835479 -54.87489144 11.04526041 -51.91796875 7.35546875 C-48.41659022 3.0554051 -48.41659022 3.0554051 -45.6796875 2.69140625 C-44.29136719 2.62759766 -44.29136719 2.62759766 -42.875 2.5625 C-38.45994679 2.24056904 -35.00314475 1.43778534 -30.9375 -0.234375 C-21.12160404 -4.11323711 -9.35208575 -5.14830325 0 0 Z " fill="#939299" transform="translate(530,473)"/>
<path d="M0 0 C0.92361328 -0.01224609 1.84722656 -0.02449219 2.79882812 -0.03710938 C7.51204332 -0.04728911 10.98093059 0.18186135 15.3125 2.1875 C17.24153132 2.4634478 19.1814032 2.67199903 21.125 2.8125 C22.10082031 2.88726562 23.07664062 2.96203125 24.08203125 3.0390625 C24.81808594 3.08804687 25.55414062 3.13703125 26.3125 3.1875 C26.3125 3.8475 26.3125 4.5075 26.3125 5.1875 C29.2825 5.6825 29.2825 5.6825 32.3125 6.1875 C32.3125 6.8475 32.3125 7.5075 32.3125 8.1875 C33.116875 8.47625 33.92125 8.765 34.75 9.0625 C37.3125 10.1875 37.3125 10.1875 38.3125 12.1875 C38.82050596 15.23553573 38.78340364 17.34647653 37.25390625 20.078125 C35.7016067 22.21516612 34.05239397 24.20010519 32.3125 26.1875 C31.67441406 26.94289063 31.03632812 27.69828125 30.37890625 28.4765625 C25.45282032 33.91158128 25.45282032 33.91158128 22.24609375 34.6875 C20.3125 34.6875 20.3125 34.6875 17.3125 34.1875 C17.3125 34.8475 17.3125 35.5075 17.3125 36.1875 C13.54035779 37.38995242 9.92985532 37.31691419 5.9921875 37.3203125 C5.2923172 37.32126923 4.5924469 37.32222595 3.87136841 37.32321167 C2.39715484 37.32389028 0.92293824 37.32205827 -0.55126953 37.31787109 C-2.81159119 37.31250216 -5.07171561 37.31783506 -7.33203125 37.32421875 C-8.76562544 37.32355823 -10.19921951 37.3222776 -11.6328125 37.3203125 C-12.93750488 37.31918457 -14.24219727 37.31805664 -15.58642578 37.31689453 C-18.6875 37.1875 -18.6875 37.1875 -20.6875 36.1875 C-20.6875 35.5275 -20.6875 34.8675 -20.6875 34.1875 C-22.3375 33.8575 -23.9875 33.5275 -25.6875 33.1875 C-25.6875 32.5275 -25.6875 31.8675 -25.6875 31.1875 C-26.53634766 30.89746094 -26.53634766 30.89746094 -27.40234375 30.6015625 C-28.13582031 30.34117187 -28.86929687 30.08078125 -29.625 29.8125 C-30.35589844 29.55726563 -31.08679688 29.30203125 -31.83984375 29.0390625 C-33.6875 28.1875 -33.6875 28.1875 -34.6875 26.1875 C-35.18362402 20.75453529 -35.37267555 15.82596326 -33.25 10.75 C-29.84985946 7.34985946 -26.1269252 5.03521656 -21.6875 3.1875 C-20.6975 3.1875 -19.7075 3.1875 -18.6875 3.1875 C-18.6875 2.5275 -18.6875 1.8675 -18.6875 1.1875 C-12.42820138 0.27025225 -6.32236173 0.0044681 0 0 Z " fill="#EAE8EC" transform="translate(518.6875,484.8125)"/>
<path d="M0 0 C-3.07562421 6.3878349 -6.71479064 11.00320729 -11.75 15.9375 C-12.34554687 16.53240234 -12.94109375 17.12730469 -13.5546875 17.74023438 C-17.54787294 21.69452515 -21.69656132 25.38621496 -26 29 C-22.21677341 30.15665526 -20.63447999 29.49106871 -17 28 C-15.515 28.495 -15.515 28.495 -14 29 C-14 29.66 -14 30.32 -14 31 C-22.29084448 34.11705093 -30.51282511 36.75642487 -39.1015625 38.953125 C-44.06410502 40.24902704 -48.93779466 41.82748467 -53.81005859 43.42578125 C-56.66999004 44.34885478 -58.97216463 45 -62 45 C-62 44.34 -62 43.68 -62 43 C-59.525 42.505 -59.525 42.505 -57 42 C-57 41.34 -57 40.68 -57 40 C-57.99 40 -58.98 40 -60 40 C-60.33 39.34 -60.66 38.68 -61 38 C-62.485 37.505 -62.485 37.505 -64 37 C-64 36.01 -64 35.02 -64 34 C-64.84820312 34.24878906 -65.69640625 34.49757813 -66.5703125 34.75390625 C-71.03273398 35.07410278 -73.3964725 33.44408599 -76.875 30.9375 C-77.46796875 30.55400391 -78.0609375 30.17050781 -78.671875 29.77539062 C-80.3671875 28.58984375 -80.3671875 28.58984375 -83 26 C-83.3828125 22.69140625 -83.3828125 22.69140625 -83 20 C-84.32 19.67 -85.64 19.34 -87 19 C-87 18.34 -87 17.68 -87 17 C-88.32 16.67 -89.64 16.34 -91 16 C-85.11171269 15.64670276 -81.19131344 15.88521194 -76 19 C-62.18659691 26.80757566 -41.70015949 23.80822924 -27 20 C-25.00340473 19.646845 -23.00411358 19.30763592 -21 19 C-21 18.34 -21 17.68 -21 17 C-19.68 16.67 -18.36 16.34 -17 16 C-17 15.34 -17 14.68 -17 14 C-16.38125 13.9175 -15.7625 13.835 -15.125 13.75 C-12.29178505 12.75004178 -12.27761471 11.66632635 -11 9 C-9.91644903 7.38801776 -8.78875935 5.80506708 -7.625 4.25 C-7.03976562 3.45078125 -6.45453125 2.6515625 -5.8515625 1.828125 C-4 0 -4 0 0 0 Z " fill="#77767C" transform="translate(572,505)"/>
<path d="M0 0 C1.99488234 0.36270588 3.99598989 0.69169075 6 1 C9.35478206 1.9318839 12.67848413 2.95628256 16 4 C16.33 3.01 16.66 2.02 17 1 C19.97722547 1.70333538 22.85256543 2.58248537 25.75 3.5625 C26.54921875 3.83191406 27.3484375 4.10132813 28.171875 4.37890625 C28.77515625 4.58386719 29.3784375 4.78882813 30 5 C30 5.66 30 6.32 30 7 C30.66 7 31.32 7 32 7 C36.42011211 14.6871515 36.15878383 22.39038786 36 31 C35.01 31 34.02 31 33 31 C32.01 24.07 32.01 24.07 31 17 C29.35 16.67 27.7 16.34 26 16 C25.505 14.515 25.505 14.515 25 13 C7.78119222 2.33562139 -18.99341621 4.31068044 -38 8 C-38 8.66 -38 9.32 -38 10 C-39.17755859 10.52787109 -39.17755859 10.52787109 -40.37890625 11.06640625 C-46.45714649 13.92280627 -51.26295837 16.58578798 -55.6953125 21.6796875 C-56.12585938 22.11539062 -56.55640625 22.55109375 -57 23 C-57.66 23 -58.32 23 -59 23 C-59.268125 23.598125 -59.53625 24.19625 -59.8125 24.8125 C-60.99917406 26.99847854 -62.09599113 28.41332594 -64 30 C-64.66 30 -65.32 30 -66 30 C-66.4375 26.9375 -66.4375 26.9375 -66 23 C-64.55515159 21.0962532 -62.92801901 19.62951601 -61.1484375 18.03515625 C-57.71035535 14.77835479 -54.87489144 11.04526041 -51.91796875 7.35546875 C-48.41659022 3.0554051 -48.41659022 3.0554051 -45.6796875 2.69140625 C-44.29136719 2.62759766 -44.29136719 2.62759766 -42.875 2.5625 C-38.45994679 2.24056904 -35.00314475 1.43778534 -30.9375 -0.234375 C-21.12160404 -4.11323711 -9.35208575 -5.14830325 0 0 Z " fill="#78767D" transform="translate(530,473)"/>
<path d="M0 0 C0 0.66 0 1.32 0 2 C0.99 2.33 1.98 2.66 3 3 C0.41739469 3.95652049 -0.64342787 4.1550655 -3.2175293 3.03564453 C-6.58195749 1.78339355 -9.24641608 1.77309618 -12.83203125 1.8046875 C-14.77045898 1.81435547 -14.77045898 1.81435547 -16.74804688 1.82421875 C-18.1028673 1.84092673 -19.45768501 1.85785658 -20.8125 1.875 C-22.18684251 1.88503997 -23.56119203 1.89416404 -24.93554688 1.90234375 C-28.29054317 1.92588758 -31.64518199 1.95877433 -35 2 C-35 2.66 -35 3.32 -35 4 C-35.81984375 4.35191406 -36.6396875 4.70382812 -37.484375 5.06640625 C-44.49996786 8.0431501 -44.49996786 8.0431501 -49.8125 13.25 C-51.46202872 18.45903805 -51.49530722 24.00938556 -49 29 C-46.88672575 29.90725434 -46.88672575 29.90725434 -44.4375 30.625 C-43.19806641 31.01558594 -43.19806641 31.01558594 -41.93359375 31.4140625 C-41.29550781 31.60742188 -40.65742188 31.80078125 -40 32 C-40.33 32.66 -40.66 33.32 -41 34 C-39.68 34.33 -38.36 34.66 -37 35 C-37 35.66 -37 36.32 -37 37 C-24.46 37 -11.92 37 1 37 C1 36.34 1 35.68 1 35 C2.57007813 34.89945313 2.57007813 34.89945313 4.171875 34.796875 C8.6695588 33.86062245 10.13902265 32.5566363 13.25 29.25 C14.08015625 28.38890625 14.9103125 27.5278125 15.765625 26.640625 C20.01563423 21.61788682 21.39159355 18.65709027 21 12 C21.99 12 22.98 12 24 12 C25.125 18.75 25.125 18.75 24 21 C24.66 21 25.32 21 26 21 C25.0254513 26.6677701 21.1930966 30.31186473 17 34 C2.74226773 42.78112938 -15.47681228 44.44251396 -31.64746094 40.66259766 C-36.55771956 39.40709493 -41.3236292 37.98121053 -46 36 C-46 35.34 -46 34.68 -46 34 C-46.8353125 33.814375 -46.8353125 33.814375 -47.6875 33.625 C-50.22114364 32.94023145 -52.57921032 32.00866237 -55 31 C-55 30.34 -55 29.68 -55 29 C-55.66 29 -56.32 29 -57 29 C-59.29050198 25.33519683 -60.31315817 21.29912249 -60 17 C-58.60439717 14.27884813 -56.66918017 12.31849037 -54.5 10.1875 C-53.98179687 9.62869141 -53.46359375 9.06988281 -52.9296875 8.49414062 C-39.93845121 -4.92907027 -16.77167534 -3.029722 0 0 Z " fill="#B3B2B8" transform="translate(535,484)"/>
<path d="M0 0 C0.80518066 0.15686279 1.61036133 0.31372559 2.43994141 0.4753418 C7.58649361 1.60941085 11.63310709 3.27050536 16 6.25 C16.495 7.735 16.495 7.735 17 9.25 C19.01508358 9.98323796 19.01508358 9.98323796 21 10.25 C21.66666667 13.58333333 22.33333333 16.91666667 23 20.25 C23.22945312 21.10464844 23.45890625 21.95929688 23.6953125 22.83984375 C24.24212535 27.16527358 21.46155509 29.89391071 19 33.25 C18.54109375 33.92160156 18.0821875 34.59320312 17.609375 35.28515625 C15.58964436 37.98737829 14.13561119 39.9050042 10.83984375 40.90625 C8.625 41.1875 8.625 41.1875 5 41.25 C7.07216726 39.63831435 9.04707858 38.2252218 11.375 37 C15.75819958 34.07786695 19.32368296 30.27895112 21 25.25 C20.34 25.25 19.68 25.25 19 25.25 C19 22.28 19 19.31 19 16.25 C18.113125 16.12625 17.22625 16.0025 16.3125 15.875 C13.29612498 15.30587264 10.79673946 14.48385564 8 13.25 C8.33 12.59 8.66 11.93 9 11.25 C7.68 10.92 6.36 10.59 5 10.25 C5 9.59 5 8.93 5 8.25 C3.906875 8.29125 2.81375 8.3325 1.6875 8.375 C-2 8.25 -2 8.25 -5 6.25 C-5 5.59 -5 4.93 -5 4.25 C-30.5622466 1.57215617 -30.5622466 1.57215617 -54 10.25 C-60.22448015 16.20479314 -60.22448015 16.20479314 -65 23.25 C-65.66 22.92 -66.32 22.59 -67 22.25 C-64.99420892 17.70747314 -62.86325454 14.81784932 -59.125 11.5625 C-58.28195312 10.81613281 -57.43890625 10.06976563 -56.5703125 9.30078125 C-54 7.25 -54 7.25 -51.2421875 5.66796875 C-48.69437598 4.38776339 -48.69437598 4.38776339 -48 1.25 C-45.28224743 0.42085515 -42.77428127 -0.23188296 -40 -0.75 C-39.14019531 -0.92660156 -38.28039062 -1.10320312 -37.39453125 -1.28515625 C-25.06964596 -2.97291384 -12.17600865 -2.4142681 0 0 Z " fill="#AEADB2" transform="translate(540,479.75)"/>
<path d="M0 0 C0.60585938 0.20496094 1.21171875 0.40992188 1.8359375 0.62109375 C7.15951339 2.33282815 12.08833428 3.38663642 17.67578125 3.69140625 C20 4 20 4 22.4453125 5.015625 C30.00332856 7.92788807 41.12542173 6.30626807 49 5 C49.99 4.34 50.98 3.68 52 3 C54.73660175 3.2806771 56.63019055 3.78042564 59 5.1875 C61.08344073 6.29478153 61.08344073 6.29478153 63.5625 5.0625 C64.366875 4.711875 65.17125 4.36125 66 4 C66.99 4.33 67.98 4.66 69 5 C69 5.66 69 6.32 69 7 C60.70915552 10.11705093 52.48717489 12.75642487 43.8984375 14.953125 C38.93589498 16.24902704 34.06220534 17.82748467 29.18994141 19.42578125 C26.33000996 20.34885478 24.02783537 21 21 21 C21 20.34 21 19.68 21 19 C22.65 18.67 24.3 18.34 26 18 C26 17.34 26 16.68 26 16 C25.01 16 24.02 16 23 16 C22.67 15.34 22.34 14.68 22 14 C21.01 13.67 20.02 13.34 19 13 C19 12.01 19 11.02 19 10 C18.15179688 10.25394531 17.30359375 10.50789062 16.4296875 10.76953125 C11.91063226 11.07320353 9.58504644 9.29036299 6.125 6.6875 C5.53203125 6.27048828 4.9390625 5.85347656 4.328125 5.42382812 C2.83693633 4.34666765 1.41180154 3.17929417 0 2 C0 1.34 0 0.68 0 0 Z " fill="#3E3D43" transform="translate(489,529)"/>
<path d="M0 0 C1.99488234 0.36270588 3.99598989 0.69169075 6 1 C9.35478206 1.9318839 12.67848413 2.95628256 16 4 C16.33 3.01 16.66 2.02 17 1 C19.97722547 1.70333538 22.85256543 2.58248537 25.75 3.5625 C26.54921875 3.83191406 27.3484375 4.10132813 28.171875 4.37890625 C28.77515625 4.58386719 29.3784375 4.78882813 30 5 C30 5.66 30 6.32 30 7 C30.66 7 31.32 7 32 7 C32 7.66 32 8.32 32 9 C25.5597783 9.37719303 20.10076654 8.75655503 13.93359375 6.8515625 C5.3484901 4.35948181 -2.41532234 3.71813532 -11.375 3.8125 C-13.1075 3.8134668 -13.1075 3.8134668 -14.875 3.81445312 C-28.8613362 3.82696019 -28.8613362 3.82696019 -42.4375 6.8125 C-43.88962891 7.28623047 -43.88962891 7.28623047 -45.37109375 7.76953125 C-48.12486926 8.86466306 -48.12486926 8.86466306 -50.09765625 11.19921875 C-50.72542969 11.79347656 -51.35320312 12.38773437 -52 13 C-54.25 12.75 -54.25 12.75 -56 12 C-50.03441322 3.53878092 -50.03441322 3.53878092 -45.30078125 2.28515625 C-43.42390185 2.17783121 -41.54392058 2.1157816 -39.6640625 2.09765625 C-37.02875058 2.00105391 -35.29301171 1.55956857 -32.875 0.5625 C-22.44112193 -3.72885308 -10.1605041 -5.59333583 0 0 Z " fill="#626167" transform="translate(530,473)"/>
<path d="M0 0 C0 0.66 0 1.32 0 2 C0.99 2.33 1.98 2.66 3 3 C0.41739469 3.95652049 -0.64342787 4.1550655 -3.2175293 3.03564453 C-6.58195749 1.78339355 -9.24641608 1.77309618 -12.83203125 1.8046875 C-14.77045898 1.81435547 -14.77045898 1.81435547 -16.74804688 1.82421875 C-18.1028673 1.84092673 -19.45768501 1.85785658 -20.8125 1.875 C-22.18684251 1.88503997 -23.56119203 1.89416404 -24.93554688 1.90234375 C-28.29054317 1.92588758 -31.64518199 1.95877433 -35 2 C-35 2.66 -35 3.32 -35 4 C-35.81984375 4.35191406 -36.6396875 4.70382812 -37.484375 5.06640625 C-44.49996786 8.0431501 -44.49996786 8.0431501 -49.8125 13.25 C-51.46202872 18.45903805 -51.49530722 24.00938556 -49 29 C-46.6859378 29.73075648 -44.35171131 30.40138258 -42 31 C-42 31.33 -42 31.66 -42 32 C-46.29 31.67 -50.58 31.34 -55 31 C-55 30.34 -55 29.68 -55 29 C-55.66 29 -56.32 29 -57 29 C-59.29050198 25.33519683 -60.31315817 21.29912249 -60 17 C-58.60439717 14.27884813 -56.66918017 12.31849037 -54.5 10.1875 C-53.98179687 9.62869141 -53.46359375 9.06988281 -52.9296875 8.49414062 C-39.93845121 -4.92907027 -16.77167534 -3.029722 0 0 Z " fill="#B6B5BB" transform="translate(535,484)"/>
<path d="M0 0 C0.99 0.66 1.98 1.32 3 2 C-2.07773386 6.95388669 -2.07773386 6.95388669 -6.75 7.1875 C-7.8225 7.125625 -8.895 7.06375 -10 7 C-10.66 7.66 -11.32 8.32 -12 9 C-15.9648579 9.68448687 -19.98462242 9.80390016 -24 10 C-25.02609375 10.05414062 -26.0521875 10.10828125 -27.109375 10.1640625 C-33.10502169 10.3349229 -37.94989625 9.67819598 -43.61328125 7.7265625 C-46.72862218 6.77819357 -49.75238943 6.50585083 -52.9921875 6.30859375 C-55.29794835 5.95420638 -56.97342667 5.13142771 -59 4 C-59 3.34 -59 2.68 -59 2 C-59.66 1.67 -60.32 1.34 -61 1 C-60.01 1.14308594 -59.02 1.28617188 -58 1.43359375 C-29.81529655 5.86398985 -29.81529655 5.86398985 -2.328125 0.6796875 C-1.17570313 0.34324219 -1.17570313 0.34324219 0 0 Z " fill="#69686E" transform="translate(550,526)"/>
<path d="M0 0 C2.375 0.25 2.375 0.25 3.375 1.25 C5.41461714 1.35050287 7.45791351 1.37965168 9.5 1.375 C11.17449219 1.37886719 11.17449219 1.37886719 12.8828125 1.3828125 C16.3058511 1.32719974 16.3058511 1.32719974 19.36694336 0.74780273 C24.55590964 -0.01660659 29.76276284 0.12680315 34.99609375 0.15234375 C36.09599136 0.1537587 37.19588898 0.15517365 38.32911682 0.15663147 C41.82360617 0.16220497 45.31803019 0.17475261 48.8125 0.1875 C51.1894522 0.19251842 53.5664054 0.19708073 55.94335938 0.20117188 C61.75392834 0.21216572 67.5644595 0.22887738 73.375 0.25 C73.375 0.58 73.375 0.91 73.375 1.25 C72.12795288 1.33302368 72.12795288 1.33302368 70.85571289 1.41772461 C67.73011659 1.62676477 64.60464662 1.83758616 61.47924805 2.04956055 C59.47779236 2.18477787 57.4762019 2.31799544 55.47460938 2.45117188 C53.55551758 2.58168945 53.55551758 2.58168945 51.59765625 2.71484375 C50.42984619 2.793396 49.26203613 2.87194824 48.05883789 2.95288086 C45.37604672 3.1692608 42.72083584 3.42805267 40.04882812 3.73632812 C35.16429114 4.29357133 30.27488554 4.66273807 25.37109375 5.00390625 C24.44837173 5.06907944 23.52564972 5.13425262 22.57496643 5.20140076 C20.63801539 5.33759831 18.70099725 5.47284455 16.76391602 5.60717773 C13.81696975 5.81218905 10.87040279 6.02214504 7.92382812 6.23242188 C6.03127099 6.36488355 4.1386935 6.49705483 2.24609375 6.62890625 C0.93952065 6.72263268 0.93952065 6.72263268 -0.39344788 6.81825256 C-5.48183461 7.16616248 -10.52672564 7.48807795 -15.625 7.25 C-16.285 6.59 -16.945 5.93 -17.625 5.25 C-16.79355469 5.14042969 -15.96210938 5.03085937 -15.10546875 4.91796875 C-14.01878906 4.75941406 -12.93210937 4.60085938 -11.8125 4.4375 C-10.19408203 4.21126953 -10.19408203 4.21126953 -8.54296875 3.98046875 C-4.80576193 3.04491631 -3.69793378 0.35218417 0 0 Z " fill="#323036" transform="translate(494.625,461.75)"/>
<path d="M0 0 C0.80518066 0.15686279 1.61036133 0.31372559 2.43994141 0.4753418 C7.58649361 1.60941085 11.63310709 3.27050536 16 6.25 C16.495 7.735 16.495 7.735 17 9.25 C19.01508358 9.98323796 19.01508358 9.98323796 21 10.25 C21.495 13.22 21.495 13.22 22 16.25 C20.7315625 15.38375 20.7315625 15.38375 19.4375 14.5 C16.05211361 12.23768929 12.55187841 10.23905191 9 8.25 C9 7.59 9 6.93 9 6.25 C8.195625 6.270625 7.39125 6.29125 6.5625 6.3125 C4 6.25 4 6.25 3 5.25 C-13.71677756 0.84243433 -30.928906 1.6433088 -48 3.25 C-48 2.59 -48 1.93 -48 1.25 C-32.19596246 -2.83725109 -16.0506675 -3.18253836 0 0 Z " fill="#89878E" transform="translate(540,479.75)"/>
<path d="M0 0 C0.99 0 1.98 0 3 0 C3.66 0.66 4.32 1.32 5 2 C3 4 3 4 -0.125 4.125 C-1.07375 4.08375 -2.0225 4.0425 -3 4 C-3 4.66 -3 5.32 -3 6 C-6.77214221 7.20245242 -10.38264468 7.12941419 -14.3203125 7.1328125 C-15.0201828 7.13376923 -15.7200531 7.13472595 -16.44113159 7.13571167 C-17.91534516 7.13639028 -19.38956176 7.13455827 -20.86376953 7.13037109 C-23.12409119 7.12500216 -25.38421561 7.13033506 -27.64453125 7.13671875 C-29.07812544 7.13605823 -30.51171951 7.1347776 -31.9453125 7.1328125 C-33.25000488 7.13168457 -34.55469727 7.13055664 -35.89892578 7.12939453 C-39 7 -39 7 -41 6 C-41 5.34 -41 4.68 -41 4 C-42.65 3.67 -44.3 3.34 -46 3 C-46 2.67 -46 2.34 -46 2 C-44.00045254 1.95745644 -41.99958364 1.95919217 -40 2 C-39.67 2.33 -39.34 2.66 -39 3 C-37.57044211 3.09891197 -36.13609927 3.13079423 -34.703125 3.1328125 C-33.8265625 3.13410156 -32.95 3.13539063 -32.046875 3.13671875 C-31.12390625 3.13285156 -30.2009375 3.12898437 -29.25 3.125 C-28.3425 3.12886719 -27.435 3.13273438 -26.5 3.13671875 C-25.61828125 3.13542969 -24.7365625 3.13414062 -23.828125 3.1328125 C-23.0227832 3.13168457 -22.21744141 3.13055664 -21.38769531 3.12939453 C-18.84624151 2.99166748 -16.48399961 2.5402565 -14 2 C-13 2 -13 2 -11.1875 2.6875 C-8.89772125 3.27630529 -8.89772125 3.27630529 -7.0625 1.5625 C-4.49136772 -0.38532748 -3.1554606 -0.24272774 0 0 Z " fill="#C7C6CB" transform="translate(539,515)"/>
<path d="M0 0 C0.60585938 0.20496094 1.21171875 0.40992188 1.8359375 0.62109375 C7.15951339 2.33282815 12.08833428 3.38663642 17.67578125 3.69140625 C20 4 20 4 23 6 C20.58265458 6.08117951 18.16805051 6.14056926 15.75 6.1875 C15.06808594 6.21263672 14.38617188 6.23777344 13.68359375 6.26367188 C9.40254649 6.32601722 7.15158632 5.91373075 4 3 C1.85266073 2.29485154 1.85266073 2.29485154 0 2 C0 1.34 0 0.68 0 0 Z " fill="#55545A" transform="translate(489,529)"/>
<path d="M0 0 C0.66 0.33 1.32 0.66 2 1 C-2.14208633 10.07733813 -2.14208633 10.07733813 -6 13 C-8.75 13.75 -8.75 13.75 -11 14 C-10.62488281 13.57589844 -10.24976563 13.15179687 -9.86328125 12.71484375 C-6.30335421 8.63482662 -3.08682003 4.4486524 0 0 Z " fill="#C4C3C8" transform="translate(556,503)"/>
<path d="M0 0 C2.35729943 2.19138979 4.02057098 4.43931973 5.6875 7.1875 C6.34298828 8.26064453 6.34298828 8.26064453 7.01171875 9.35546875 C7.33785156 9.89816406 7.66398438 10.44085937 8 11 C4.00499382 9.6302836 1.19990508 7.74277578 -2 5 C-1.34 3.35 -0.68 1.7 0 0 Z " fill="#C2C3CB" transform="translate(841,717)"/>
<path d="M0 0 C0.99 0.33 1.98 0.66 3 1 C2.41992188 1.44730469 1.83984375 1.89460938 1.2421875 2.35546875 C-3.2423764 5.8261956 -7.67101386 9.33701172 -12 13 C-12 12.01 -12 11.02 -12 10 C-10.55984663 8.72350042 -9.11069428 7.45374954 -7.59375 6.26953125 C-5.82531994 4.90970564 -5.82531994 4.90970564 -3.75 2.75 C-2 1 -2 1 0 0 Z " fill="#939298" transform="translate(489,483)"/>
<path d="M0 0 C0.33 0.66 0.66 1.32 1 2 C-8.41002278 5.44419134 -8.41002278 5.44419134 -13 5 C-11.41510668 2.41412143 -10.56783789 1.17931723 -7.625 0.25 C-5.06177985 0.0058838 -2.57303453 -0.07351527 0 0 Z " fill="#545359" transform="translate(492,475)"/>
<path d="M0 0 C0.66 0.33 1.32 0.66 2 1 C0.63016497 4.16115776 0.0109362 4.9927092 -3 7 C-3.99 8.485 -3.99 8.485 -5 10 C-5.99 10 -6.98 10 -8 10 C-8 10.66 -8 11.32 -8 12 C-8.66 11.67 -9.32 11.34 -10 11 C-9.34 10.01 -8.68 9.02 -8 8 C-7.34 8 -6.68 8 -6 8 C-5.731875 7.360625 -5.46375 6.72125 -5.1875 6.0625 C-4 4 -4 4 -1 3 C-0.67 2.01 -0.34 1.02 0 0 Z " fill="#3B3A40" transform="translate(399,530)"/>
<path d="M0 0 C0 0.66 0 1.32 0 2 C-3.6441774 4.4294516 -5.71241272 4.16179575 -10 4 C-6.86268382 1.90845588 -3.85464592 0 0 0 Z " fill="#22202A" transform="translate(235,744)"/>
<path d="M0 0 C0.33 0.99 0.66 1.98 1 3 C-0.40445835 5.2636564 -2.1967913 7.0208685 -4 9 C-4.66 8.67 -5.32 8.34 -6 8 C-4.02 5.36 -2.04 2.72 0 0 Z " fill="#19181F" transform="translate(509,401)"/>
<path d="M0 0 C0.66 0 1.32 0 2 0 C1.50168276 3.68754757 0.89932357 5.60490662 -2 8 C-2.66 7.67 -3.32 7.34 -4 7 C-2.68 4.69 -1.36 2.38 0 0 Z " fill="#D9D9DE" transform="translate(514,203)"/>
</svg>
